<svg width="12" height="7" viewBox="0 0 12 7" fill="none" xmlns="http://www.w3.org/2000/svg">
<path d="M11.6914 3.19161C11.6112 3.11611 11.5047 3.07515 11.3946 3.07632L1.63019 3.07632L3.30403 1.40248C3.38597 1.32288 3.4322 1.21344 3.4322 1.09873C3.4322 0.984018 3.38597 0.874574 3.30345 0.794394C3.13606 0.631692 2.86801 0.635204 2.70473 0.803173L0.351405 3.1565C0.313948 3.18342 0.281174 3.21619 0.253667 3.25423L0.00785819 3.50004L0.252496 3.74468C0.280003 3.78272 0.313363 3.81608 0.351405 3.84359L2.70473 6.19691C2.81124 6.30694 2.96809 6.35025 3.11616 6.31104C3.26423 6.273 3.38012 6.15711 3.41816 6.00904C3.45737 5.86097 3.41406 5.70412 3.30403 5.59761L1.63019 3.92377L11.3946 3.92377C11.569 3.92611 11.7277 3.82135 11.7938 3.65923C11.8588 3.49712 11.8184 3.31159 11.6914 3.19161Z" fill="#987A54"/>
</svg>
