<svg width="20" height="20" viewBox="0 0 20 20" fill="none" xmlns="http://www.w3.org/2000/svg">
<path d="M7.97474 4.31669C8.13307 4.31669 8.29141 4.37502 8.41641 4.50002C8.65807 4.74169 8.65807 5.14169 8.41641 5.38336L3.79974 10L8.41641 14.6167C8.65807 14.8584 8.65807 15.2584 8.41641 15.5C8.17474 15.7417 7.77474 15.7417 7.53307 15.5L2.47474 10.4417C2.23307 10.2 2.23307 9.80002 2.47474 9.55836L7.53307 4.50002C7.65807 4.37502 7.8164 4.31669 7.97474 4.31669Z" fill="#987A54"/>
<path d="M3.05801 9.375L17.083 9.375C17.4247 9.375 17.708 9.65833 17.708 10C17.708 10.3417 17.4247 10.625 17.083 10.625L3.05801 10.625C2.71634 10.625 2.43301 10.3417 2.43301 10C2.43301 9.65833 2.71634 9.375 3.05801 9.375Z" fill="#987A54"/>
</svg>
