<svg width="48" height="47" viewBox="0 0 48 47" fill="none" xmlns="http://www.w3.org/2000/svg">
<path d="M7.35449 36.7188C6.55158 36.7188 5.88574 36.053 5.88574 35.2501V13.7084C5.88574 5.07217 8.50991 2.448 17.1462 2.448H30.8545C39.4907 2.448 42.1149 5.07217 42.1149 13.7084V33.2917C42.1149 33.6051 42.1149 33.8988 42.0953 34.2122C42.0366 35.0151 41.312 35.6417 40.5287 35.583C39.7257 35.5242 39.0991 34.8192 39.1578 34.0163C39.1774 33.7813 39.1774 33.5267 39.1774 33.2917V13.7084C39.1774 6.71716 37.8653 5.3855 30.8545 5.3855H17.1462C10.1353 5.3855 8.82324 6.71716 8.82324 13.7084V35.2501C8.82324 36.053 8.15741 36.7188 7.35449 36.7188Z" fill="#DDD9D4"/>
<path d="M33.792 44.5521H14.2087C9.62616 44.5521 5.88574 40.8117 5.88574 36.2292V34.9563C5.88574 31.0592 9.05824 27.9062 12.9357 27.9062H40.6462C41.4491 27.9062 42.1149 28.5721 42.1149 29.375V36.2292C42.1149 40.8117 38.3745 44.5521 33.792 44.5521ZM12.9357 30.8437C10.6641 30.8437 8.82324 32.6846 8.82324 34.9563V36.2292C8.82324 39.2058 11.232 41.6146 14.2087 41.6146H33.792C36.7687 41.6146 39.1774 39.2058 39.1774 36.2292V30.8437H12.9357Z" fill="#DDD9D4"/>
<path d="M31.8337 15.177H16.167C15.3641 15.177 14.6982 14.5112 14.6982 13.7083C14.6982 12.9053 15.3641 12.2395 16.167 12.2395H31.8337C32.6366 12.2395 33.3024 12.9053 33.3024 13.7083C33.3024 14.5112 32.6366 15.177 31.8337 15.177Z" fill="#DDD9D4"/>
<path d="M25.9587 22.0312H16.167C15.3641 22.0312 14.6982 21.3654 14.6982 20.5625C14.6982 19.7596 15.3641 19.0938 16.167 19.0938H25.9587C26.7616 19.0938 27.4274 19.7596 27.4274 20.5625C27.4274 21.3654 26.7616 22.0312 25.9587 22.0312Z" fill="#DDD9D4"/>
</svg>
