<svg width="47" height="47" viewBox="0 0 47 47" fill="none" xmlns="http://www.w3.org/2000/svg">
<path d="M22.7656 1.46875C16.0243 1.46875 10.0059 4.6214 6.10162 9.52679C6.06433 9.56696 6.0213 9.59564 5.99261 9.64154C5.98401 9.65588 5.98114 9.67596 5.97253 9.69031C3.15552 13.3019 1.46875 17.8401 1.46875 22.7656C1.46875 27.694 3.15552 32.235 5.97827 35.8467C5.98688 35.861 5.98401 35.8754 5.99548 35.8897C6.03565 35.9528 6.08441 36.0045 6.13892 36.0532C10.046 40.9299 16.0444 44.0625 22.7656 44.0625C29.527 44.0625 35.5598 40.8926 39.4641 35.9614C39.487 35.9356 39.5157 35.9155 39.5329 35.8868C39.5415 35.8782 39.5415 35.8668 39.5444 35.8553C42.3729 32.2408 44.0625 27.6997 44.0625 22.7656C44.0625 17.8344 42.3729 13.2933 39.5501 9.67883C39.5415 9.66736 39.5444 9.65588 39.5358 9.64441C39.5157 9.61285 39.4813 9.59277 39.4583 9.56409C35.5541 4.63574 29.5242 1.46875 22.7656 1.46875ZM22.0312 2.99487V13.2073C19.2286 13.1585 16.532 12.8286 14.0793 12.2434C15.812 6.98517 18.7667 3.4596 22.0312 2.99487ZM23.5 2.99487C26.7617 3.4596 29.7192 6.98517 31.4519 12.2434C28.9992 12.8286 26.3027 13.1585 23.5 13.2073V2.99487ZM17.559 3.63745C15.5223 5.43323 13.8097 8.26746 12.645 11.8619C10.8263 11.3312 9.16534 10.6599 7.73676 9.85382C10.287 6.89337 13.6863 4.69025 17.559 3.63745ZM27.9694 3.63745C31.842 4.69025 35.2443 6.89337 37.7945 9.85382C36.3659 10.6599 34.705 11.3312 32.8862 11.8619C31.7187 8.26746 30.0061 5.43323 27.9694 3.63745ZM6.81018 11.007C8.3822 11.9221 10.2124 12.6794 12.2319 13.2675C11.9307 14.3806 11.6783 15.5481 11.4832 16.7759C11.4172 17.1746 11.6898 17.5504 12.0914 17.6135C12.1315 17.6221 12.1688 17.625 12.2061 17.625C12.5618 17.625 12.8745 17.3668 12.9319 17.0054C13.1183 15.8321 13.3651 14.7133 13.6548 13.649C16.2452 14.2744 19.0851 14.6273 22.0312 14.676V16.8906C22.0312 17.2951 22.3583 17.625 22.7656 17.625C23.1701 17.625 23.5 17.2951 23.5 16.8906V14.676C26.4432 14.6273 29.2861 14.2744 31.8736 13.649C32.1633 14.7133 32.4129 15.8292 32.5994 17.0054C32.6625 17.4041 33.0383 17.6824 33.4399 17.6135C33.8415 17.5504 34.114 17.1746 34.048 16.7759C33.853 15.5481 33.5977 14.3806 33.2993 13.2675C35.316 12.6823 37.149 11.9221 38.7182 11.0099C41.1537 14.3002 42.5938 18.368 42.5938 22.7656C42.5938 27.1633 41.1508 31.231 38.7182 34.5242C37.149 33.6091 35.3131 32.8489 33.2936 32.2609C33.5345 31.3773 33.7468 30.4622 33.9218 29.5041C33.9964 29.1053 33.7296 28.7238 33.3309 28.6521C32.9321 28.5804 32.5506 28.8443 32.476 29.243C32.3096 30.161 32.1088 31.0388 31.8793 31.8822C29.2889 31.2568 26.4461 30.904 23.5 30.8552V29.375C23.5 28.9705 23.173 28.6406 22.7656 28.6406C22.3583 28.6406 22.0312 28.9705 22.0312 29.375V30.8552C19.0851 30.904 16.2423 31.2568 13.6519 31.8822C13.4224 31.0388 13.2216 30.161 13.0552 29.243C12.9807 28.8443 12.5991 28.5833 12.2004 28.6521C11.8016 28.7238 11.5377 29.1082 11.6094 29.507C11.7844 30.4622 11.9967 31.3802 12.2377 32.2637C10.2153 32.8489 8.3822 33.6091 6.81018 34.5242C4.37756 31.231 2.9375 27.1633 2.9375 22.7656C2.9375 18.368 4.38043 14.3002 6.81018 11.007ZM15.3416 18.3622C15.0576 18.3938 14.8051 18.5917 14.7191 18.8843L13.1413 24.1397L11.7041 20.3043C11.5951 20.0175 11.3226 19.8281 11.0156 19.8281C10.7087 19.8281 10.4362 20.0175 10.3271 20.3043L8.88995 24.1397L7.31219 18.8843C7.19458 18.4942 6.78723 18.2762 6.3971 18.3909C6.00983 18.5085 5.79181 18.9159 5.90656 19.3032L8.10968 26.6469C8.19861 26.951 8.47113 27.1604 8.78955 27.1719C9.11658 27.1977 9.39197 26.9911 9.50098 26.6957L11.0156 22.6537L12.5303 26.6957C12.6393 26.9825 12.9147 27.1719 13.2188 27.1719H13.2417C13.5601 27.1604 13.8326 26.951 13.9216 26.6469L16.1247 19.3032C16.2394 18.9159 16.0214 18.5085 15.6313 18.3909C15.5338 18.3622 15.4362 18.3508 15.3416 18.3622ZM27.0916 18.3622C26.8076 18.3938 26.5551 18.5917 26.4691 18.8843L24.8913 24.1397L23.4541 20.3043C23.3451 20.0175 23.0726 19.8281 22.7656 19.8281C22.4587 19.8281 22.1862 20.0175 22.0771 20.3043L20.64 24.1397L19.0622 18.8843C18.9446 18.4942 18.5372 18.2762 18.15 18.3909C17.7598 18.5085 17.5418 18.9159 17.6566 19.3032L19.8597 26.6469C19.9486 26.951 20.2211 27.1604 20.5396 27.1719C20.8551 27.1977 21.1391 26.9911 21.251 26.6957L22.7656 22.6537L24.2803 26.6957C24.3893 26.9825 24.6647 27.1719 24.9688 27.1719H24.9917C25.3101 27.1604 25.5826 26.951 25.6716 26.6469L27.8747 19.3032C27.9894 18.9159 27.7714 18.5085 27.3813 18.3909C27.2838 18.3622 27.1862 18.3508 27.0916 18.3622ZM38.8416 18.3622C38.5576 18.3938 38.3051 18.5917 38.2191 18.8843L36.6413 24.1397L35.2041 20.3043C35.0951 20.0175 34.8226 19.8281 34.5156 19.8281C34.2087 19.8281 33.9362 20.0175 33.8271 20.3043L32.39 24.1397L30.8122 18.8843C30.6946 18.4942 30.2872 18.2762 29.9 18.3909C29.5098 18.5085 29.2918 18.9159 29.4066 19.3032L31.6097 26.6469C31.6986 26.951 31.9711 27.1604 32.2896 27.1719C32.6223 27.1977 32.892 26.9911 33.001 26.6957L34.5156 22.6537L36.0303 26.6957C36.1393 26.9825 36.4147 27.1719 36.7188 27.1719H36.7417C37.0601 27.1604 37.3326 26.951 37.4216 26.6469L39.6247 19.3032C39.7394 18.9159 39.5214 18.5085 39.1313 18.3909C39.0338 18.3622 38.9362 18.3508 38.8416 18.3622ZM22.0312 32.324V42.5364C18.7495 42.0803 15.8005 38.592 14.0679 33.2878C16.5234 32.7026 19.2257 32.3727 22.0312 32.324ZM23.5 32.324C26.3055 32.3727 29.0078 32.7055 31.4634 33.2907C29.7307 38.592 26.7817 42.0831 23.5 42.5364V32.324ZM12.6594 33.6665C13.8326 37.2581 15.5567 40.1066 17.6021 41.9053C13.7122 40.8553 10.2956 38.6494 7.73676 35.6774C9.16821 34.8685 10.8349 34.1943 12.6594 33.6665ZM32.8719 33.6665C34.6964 34.1943 36.363 34.8685 37.7945 35.6774C35.2357 38.6494 31.8191 40.8553 27.9292 41.9053C29.9717 40.1066 31.6986 37.2581 32.8719 33.6665Z" fill="#DDD9D4"/>
</svg>
