<svg width="26" height="26" viewBox="0 0 26 26" fill="none" xmlns="http://www.w3.org/2000/svg">
<path d="M25.8735 13.8668L24.3407 11.4346L25.247 8.70481C25.3731 8.33185 25.2194 7.92318 24.8805 7.72479L22.402 6.28849L21.9449 3.44365C21.8818 3.05482 21.5548 2.76517 21.1686 2.7493L18.3078 2.63821L16.5898 0.329009C16.3573 0.0155607 15.9317 -0.0875988 15.585 0.0790439L13 1.31697L10.415 0.0790439C10.0643 -0.0875988 9.64271 0.0155607 9.40628 0.329009L7.69218 2.63821L4.83139 2.7493C4.44522 2.76517 4.11816 3.05482 4.05512 3.44365L3.59802 6.28452L1.11946 7.72479C0.780577 7.91921 0.626898 8.32788 0.749053 8.70085L1.6593 11.4346L0.126457 13.8668C-0.0823878 14.2001 -0.0272211 14.6326 0.252553 14.9063L2.31736 16.9021L2.08882 19.7707C2.05729 20.1635 2.3016 20.5206 2.67595 20.6317L5.4264 21.4292L6.5455 24.0796C6.69918 24.4407 7.0814 24.651 7.46363 24.5677L10.2653 23.9884L12.4799 25.8135C12.6296 25.9365 12.8148 26 13 26C13.1852 26 13.3665 25.9365 13.5201 25.8135L15.7347 23.9884L18.5364 24.5677C18.9186 24.651 19.3048 24.4447 19.4545 24.0796L20.5736 21.4292L23.3241 20.6317C23.6984 20.5246 23.9427 20.1635 23.9112 19.7707L23.6826 16.9021L25.7474 14.9063C26.0272 14.6326 26.0824 14.2001 25.8735 13.8668ZM18.9304 9.89512L13.1891 18.5566C12.9724 18.878 12.6335 19.0962 12.3025 19.0962C11.9676 19.0962 11.5972 18.9058 11.3568 18.6677L7.14445 14.3548C6.85679 14.0612 6.85679 13.5851 7.14445 13.2875L8.18474 12.2242C8.47239 11.9306 8.93737 11.9306 9.22502 12.2242L11.9676 15.0293L16.4913 8.20489C16.7159 7.8597 17.1769 7.77241 17.5118 8.0065L18.7334 8.85162C19.0683 9.08175 19.155 9.5539 18.9304 9.89512Z" fill="#987A54"/>
</svg>
