<svg width="43" height="43" viewBox="0 0 43 43" fill="none" xmlns="http://www.w3.org/2000/svg">
<path d="M15.0575 0.000973715C14.8401 -0.00640437 14.6232 0.0282021 14.4188 0.102909C14.4188 0.102909 11.1067 1.30284 10.1599 1.5987C8.95696 1.97357 6.34209 2.80816 4.08429 5.12212C1.82567 7.43692 0 11.2286 0 17.0198V22.0102C0 24.8098 2.29993 27.1158 5.0921 27.1158H7.92105V37.8944C7.92105 40.694 10.221 43 13.0132 43H29.9868C32.779 43 35.0789 40.694 35.0789 37.8944V27.1158H37.9079C40.7001 27.1158 43 24.8098 43 22.0102V17.0198C43 11.2286 41.1743 7.43692 38.9157 5.12212C36.6571 2.80732 34.0402 1.97337 32.8379 1.5987C31.8953 1.30511 28.5812 0.102909 28.5812 0.102909C28.3702 0.0260775 28.146 -0.00800853 27.9217 0.00262434C27.6974 0.0132572 27.4775 0.0683979 27.2746 0.164853C27.0717 0.261309 26.8899 0.397163 26.7398 0.564548C26.5896 0.731933 26.4741 0.927522 26.3998 1.13999C26.3998 1.13999 25.5007 4.34653 21.5 4.34653C17.4993 4.34653 16.6002 1.13999 16.6002 1.13999C16.4873 0.816476 16.2797 0.534661 16.0044 0.33143C15.7292 0.1282 15.3991 0.0130228 15.0575 0.000973715ZM14.3635 3.72605C15.2867 5.2991 17.1223 7.75028 21.5 7.75028C25.8777 7.75028 27.7133 5.2991 28.6365 3.72605C29.6185 4.0821 30.9235 4.56707 31.8301 4.84956C32.9871 5.21009 34.8558 5.82599 36.4912 7.50209C38.1266 9.1782 39.6053 11.9189 39.6053 17.0198V22.0102C39.6053 22.9706 38.8658 23.712 37.9079 23.712H35.0789V20.8756C35.0821 20.6501 35.0406 20.4262 34.9567 20.2169C34.8728 20.0076 34.7483 19.8171 34.5904 19.6565C34.4324 19.4959 34.2443 19.3684 34.0367 19.2813C33.8292 19.1943 33.6065 19.1495 33.3816 19.1495C33.1566 19.1495 32.9339 19.1943 32.7264 19.2813C32.5189 19.3684 32.3307 19.4959 32.1728 19.6565C32.0148 19.8171 31.8903 20.0076 31.8065 20.2169C31.7226 20.4262 31.681 20.6501 31.6842 20.8756V37.8944C31.6842 38.8548 30.9447 39.5962 29.9868 39.5962H13.0132C12.0553 39.5962 11.3158 38.8548 11.3158 37.8944V19.741C11.3187 19.5134 11.2761 19.2875 11.1905 19.0767C11.1049 18.8659 10.9779 18.6745 10.8172 18.5137C10.6565 18.353 10.4652 18.2262 10.2547 18.1409C10.0443 18.0555 9.81889 18.0134 9.5919 18.017C9.1425 18.024 8.71424 18.2095 8.40102 18.5326C8.0878 18.8558 7.91519 19.2904 7.92105 19.741V23.712H5.0921C4.13422 23.712 3.39474 22.9706 3.39474 22.0102V17.0198C3.39474 11.9189 4.87336 9.1782 6.50879 7.50209C8.14421 5.82599 10.0129 5.21009 11.1699 4.84956V4.84734C12.0727 4.56524 13.3803 4.0822 14.3635 3.72605Z" fill="#DDD9D4"/>
</svg>
