<svg width="46" height="45" viewBox="0 0 46 45" fill="none" xmlns="http://www.w3.org/2000/svg">
<path d="M23 0C10.5913 0 0.5 10.0913 0.5 22.5C0.5 34.9087 10.5913 45 23 45C35.4087 45 45.5 34.9087 45.5 22.5C45.5 17.7075 44.0045 13.2646 41.4395 9.61963L39.0093 12.0498C40.978 15.0536 42.125 18.6525 42.125 22.5C42.125 33.0412 33.5412 41.625 23 41.625C12.4587 41.625 3.875 33.0412 3.875 22.5C3.875 11.9587 12.4587 3.375 23 3.375C26.8475 3.375 30.4464 4.52197 33.4502 6.49072L35.8804 4.06055C32.2354 1.49555 27.7925 0 23 0ZM42.6545 1.10962C42.2163 1.12239 41.8002 1.30522 41.4944 1.61938L21.8069 21.3069C21.6449 21.4624 21.5156 21.6486 21.4266 21.8547C21.3375 22.0608 21.2904 22.2826 21.2882 22.5071C21.2859 22.7316 21.3284 22.9543 21.4133 23.1622C21.4981 23.37 21.6236 23.5589 21.7824 23.7176C21.9411 23.8764 22.13 24.0019 22.3378 24.0867C22.5457 24.1716 22.7684 24.2141 22.9929 24.2118C23.2174 24.2096 23.4392 24.1625 23.6453 24.0734C23.8514 23.9844 24.0376 23.8551 24.1931 23.6931L43.8806 4.00562C44.1241 3.76852 44.2903 3.46344 44.3575 3.13033C44.4247 2.79721 44.3897 2.45156 44.2573 2.13862C44.1248 1.82568 43.9009 1.56003 43.6149 1.37643C43.329 1.19283 42.9942 1.09984 42.6545 1.10962ZM23 6.75C14.315 6.75 7.25 13.815 7.25 22.5C7.25 31.185 14.315 38.25 23 38.25C31.685 38.25 38.75 31.185 38.75 22.5C38.75 19.5863 37.9521 16.8532 36.5571 14.502L34.0808 16.9761C34.9021 18.6411 35.375 20.5088 35.375 22.5C35.375 29.3288 29.8288 34.875 23 34.875C16.1712 34.875 10.625 29.3288 10.625 22.5C10.625 15.6712 16.1712 10.125 23 10.125C24.9912 10.125 26.8589 10.5979 28.5239 11.4192L30.998 8.94287C28.6468 7.54787 25.9137 6.75 23 6.75ZM23 13.5C18.0387 13.5 14 17.5387 14 22.5C14 27.4613 18.0387 31.5 23 31.5C27.9613 31.5 32 27.4613 32 22.5C32 21.4762 31.8209 20.487 31.4946 19.5645L28.625 22.4319V22.5C28.625 25.605 26.105 28.125 23 28.125C19.895 28.125 17.375 25.605 17.375 22.5C17.375 19.395 19.895 16.875 23 16.875H23.0681L25.9355 14.0054C25.013 13.6791 24.0238 13.5 23 13.5Z" fill="#DDD9D4"/>
</svg>
