<svg width="40" height="40" viewBox="0 0 40 40" fill="none" xmlns="http://www.w3.org/2000/svg">
<rect width="40" height="40" rx="20" fill="white" fill-opacity="0.08"/>
<g clip-path="url(#clip0_4_866)">
<path d="M23.7501 12.5C25.8124 12.5 27.5001 14.1877 27.5001 16.25V23.7505C27.5001 25.8123 25.8124 27.5005 23.7501 27.5005H16.25C14.1877 27.5005 12.5 25.8123 12.5 23.7505V16.25C12.5 14.1877 14.1877 12.5 16.25 12.5H23.7501ZM23.7501 13.7501H16.25C14.8717 13.7501 13.7501 14.8715 13.7501 16.25V23.7505C13.7501 25.1286 14.8717 26.2504 16.25 26.2504H23.7501C25.129 26.2504 26.2501 25.1286 26.2501 23.7505V16.25C26.2501 14.8715 25.129 13.7501 23.7501 13.7501ZM20.0001 16.25C22.071 16.25 23.7501 17.9287 23.7501 20.0001C23.7501 22.0707 22.071 23.7505 20.0001 23.7505C17.9286 23.7505 16.25 22.0707 16.25 20.0001C16.25 17.9287 17.9286 16.25 20.0001 16.25ZM20.0001 17.5001C18.6195 17.5001 17.5001 18.6191 17.5001 20.0001C17.5001 21.381 18.6195 22.5004 20.0001 22.5004C21.3806 22.5004 22.5 21.381 22.5 20.0001C22.5 18.6191 21.3806 17.5001 20.0001 17.5001ZM24.0627 15C24.5804 15 25.0002 15.4197 25.0002 15.9375C25.0002 16.4552 24.5804 16.875 24.0627 16.875C23.5449 16.875 23.1252 16.4552 23.1252 15.9375C23.1252 15.4197 23.5449 15 24.0627 15Z" fill="white"/>
</g>
<defs>
<clipPath id="clip0_4_866">
<rect width="15" height="15" fill="white" transform="translate(12.5 12.5)"/>
</clipPath>
</defs>
</svg>
