<svg width="16" height="16" viewBox="0 0 16 16" fill="none" xmlns="http://www.w3.org/2000/svg">
<path d="M11.3262 6.47314H4.67285C4.39952 6.47314 4.17285 6.24648 4.17285 5.97314C4.17285 5.69981 4.39952 5.47314 4.67285 5.47314H11.3262C11.5995 5.47314 11.8262 5.69981 11.8262 5.97314C11.8262 6.24648 11.5995 6.47314 11.3262 6.47314Z" fill="#DDD9D4"/>
<path d="M8 6.47351C7.72667 6.47351 7.5 6.24684 7.5 5.97351V4.85352C7.5 4.58018 7.72667 4.35352 8 4.35352C8.27333 4.35352 8.5 4.58018 8.5 4.85352V5.97351C8.5 6.24684 8.27333 6.47351 8 6.47351Z" fill="#DDD9D4"/>
<path d="M4.66699 11.6466C4.39366 11.6466 4.16699 11.4199 4.16699 11.1466C4.16699 10.8733 4.39366 10.6466 4.66699 10.6466C7.14699 10.6466 9.16699 8.54663 9.16699 5.95996C9.16699 5.68663 9.39366 5.45996 9.66699 5.45996C9.94033 5.45996 10.167 5.68663 10.167 5.95996C10.167 9.09996 7.70033 11.6466 4.66699 11.6466Z" fill="#DDD9D4"/>
<path d="M11.3335 11.6468C10.0202 11.6468 8.80015 10.9935 7.90682 9.80018C7.74015 9.58018 7.78683 9.26686 8.00683 9.10019C8.22683 8.93352 8.54016 8.98017 8.70682 9.20017C9.41349 10.1335 10.3468 10.6468 11.3402 10.6468C11.6135 10.6468 11.8402 10.8735 11.8402 11.1468C11.8402 11.4202 11.6068 11.6468 11.3335 11.6468Z" fill="#DDD9D4"/>
<path d="M7.99967 15.1668C4.04634 15.1668 0.833008 11.9535 0.833008 8.00016C0.833008 4.04683 4.04634 0.833496 7.99967 0.833496C11.953 0.833496 15.1663 4.04683 15.1663 8.00016C15.1663 11.9535 11.953 15.1668 7.99967 15.1668ZM7.99967 1.8335C4.59967 1.8335 1.83301 4.60016 1.83301 8.00016C1.83301 11.4002 4.59967 14.1668 7.99967 14.1668C11.3997 14.1668 14.1663 11.4002 14.1663 8.00016C14.1663 4.60016 11.3997 1.8335 7.99967 1.8335Z" fill="#DDD9D4"/>
</svg>
