<svg width="40" height="40" viewBox="0 0 40 40" fill="none" xmlns="http://www.w3.org/2000/svg">
<rect width="40" height="40" rx="20" fill="white" fill-opacity="0.08"/>
<g clip-path="url(#clip0_4_857)">
<path d="M16.4094 26.4951H13.7147V17.8191H16.4094V26.4951ZM15.0606 16.6356C14.1991 16.6356 13.5 15.9221 13.5 15.0606C13.5 14.1991 14.1991 13.5 15.0606 13.5C15.9221 13.5 16.6211 14.1991 16.6211 15.0606C16.6211 15.9221 15.9221 16.6356 15.0606 16.6356ZM26.4951 26.4951H23.8062V22.2717C23.8062 21.2651 23.7858 19.9743 22.4051 19.9743C21.0041 19.9743 20.7894 21.0679 20.7894 22.1992V26.4951H18.0976V17.8191H20.6821V19.0026H20.7198C21.0795 18.3209 21.9584 17.6016 23.2695 17.6016C25.9962 17.6016 26.498 19.3971 26.498 21.7293V26.4951H26.4951Z" fill="white"/>
</g>
<defs>
<clipPath id="clip0_4_857">
<rect width="13" height="13" fill="white" transform="translate(13.5 13.5)"/>
</clipPath>
</defs>
</svg>
