<svg width="88" height="54" viewBox="0 0 88 54" fill="none" xmlns="http://www.w3.org/2000/svg">
<rect width="88" height="54" rx="10" fill="#1877F2"/>
<rect x="17" width="54" height="54" rx="10" fill="#1877F2"/>
<g clip-path="url(#clip0_4_4117)">
<rect width="24" height="24" transform="translate(32 15)" fill="#1877F2"/>
<path d="M55.5 27.0699C55.5 20.7186 50.3513 15.5699 44 15.5699C37.6487 15.5699 32.5 20.7186 32.5 27.0699C32.5 32.8099 36.7054 37.5674 42.2031 38.4302V30.3941H39.2832V27.0699H42.2031V24.5363C42.2031 21.6541 43.92 20.0621 46.5468 20.0621C47.805 20.0621 49.1211 20.2867 49.1211 20.2867V23.1168H47.671C46.2424 23.1168 45.7969 24.0032 45.7969 24.9127V27.0699H48.9863L48.4765 30.3941H45.7969V38.4302C51.2946 37.5674 55.5 32.8099 55.5 27.0699Z" fill="white"/>
</g>
<defs>
<clipPath id="clip0_4_4117">
<rect width="24" height="24" fill="white" transform="translate(32 15)"/>
</clipPath>
</defs>
</svg>
