<svg width="94" height="62" viewBox="0 0 94 62" fill="none" xmlns="http://www.w3.org/2000/svg">
<g filter="url(#filter0_dd_4_4130)">
<rect x="3" y="3" width="88" height="54" rx="10" fill="black"/>
<rect x="20" y="3" width="54" height="54" rx="10" fill="black"/>
<rect width="24" height="24" transform="translate(35 18)" fill="black"/>
<path d="M56.2798 36.424C55.932 37.2275 55.5203 37.9672 55.0433 38.6472C54.393 39.5743 53.8606 40.216 53.4503 40.5724C52.8143 41.1573 52.1329 41.4568 51.4031 41.4739C50.8792 41.4739 50.2475 41.3248 49.5121 41.0224C48.7742 40.7214 48.0962 40.5724 47.4762 40.5724C46.826 40.5724 46.1286 40.7214 45.3827 41.0224C44.6356 41.3248 44.0338 41.4824 43.5737 41.498C42.8739 41.5278 42.1764 41.2197 41.4802 40.5724C41.0358 40.1848 40.48 39.5204 39.8142 38.5791C39.0998 37.5739 38.5124 36.4084 38.0523 35.0795C37.5595 33.6442 37.3125 32.2543 37.3125 30.9087C37.3125 29.3673 37.6456 28.0379 38.3127 26.9238C38.837 26.029 39.5345 25.3231 40.4075 24.8049C41.2804 24.2867 42.2237 24.0227 43.2395 24.0058C43.7953 24.0058 44.5242 24.1777 45.43 24.5156C46.3332 24.8546 46.9131 25.0265 47.1674 25.0265C47.3575 25.0265 48.0018 24.8255 49.094 24.4247C50.1268 24.0531 50.9985 23.8992 51.7126 23.9598C53.6477 24.1159 55.1015 24.8788 56.0683 26.253C54.3377 27.3016 53.4816 28.7703 53.4986 30.6544C53.5142 32.122 54.0466 33.3432 55.0929 34.3129C55.5671 34.7629 56.0967 35.1107 56.6859 35.3578C56.5581 35.7283 56.4232 36.0832 56.2798 36.424ZM51.8418 18.9601C51.8418 20.1104 51.4216 21.1844 50.5839 22.1785C49.5731 23.3602 48.3505 24.0431 47.0246 23.9354C47.0077 23.7974 46.9979 23.6521 46.9979 23.4995C46.9979 22.3953 47.4786 21.2135 48.3323 20.2472C48.7585 19.758 49.3005 19.3512 49.9579 19.0267C50.6138 18.7071 51.2342 18.5303 51.8177 18.5C51.8347 18.6538 51.8418 18.8076 51.8418 18.9601V18.9601Z" fill="white"/>
</g>
<defs>
<filter id="filter0_dd_4_4130" x="0" y="0" width="94" height="62" filterUnits="userSpaceOnUse" color-interpolation-filters="sRGB">
<feFlood flood-opacity="0" result="BackgroundImageFix"/>
<feColorMatrix in="SourceAlpha" type="matrix" values="0 0 0 0 0 0 0 0 0 0 0 0 0 0 0 0 0 0 127 0" result="hardAlpha"/>
<feOffset dy="2"/>
<feGaussianBlur stdDeviation="1.5"/>
<feColorMatrix type="matrix" values="0 0 0 0 0 0 0 0 0 0 0 0 0 0 0 0 0 0 0.168 0"/>
<feBlend mode="normal" in2="BackgroundImageFix" result="effect1_dropShadow_4_4130"/>
<feColorMatrix in="SourceAlpha" type="matrix" values="0 0 0 0 0 0 0 0 0 0 0 0 0 0 0 0 0 0 127 0" result="hardAlpha"/>
<feOffset/>
<feGaussianBlur stdDeviation="1.5"/>
<feColorMatrix type="matrix" values="0 0 0 0 0 0 0 0 0 0 0 0 0 0 0 0 0 0 0.084 0"/>
<feBlend mode="normal" in2="effect1_dropShadow_4_4130" result="effect2_dropShadow_4_4130"/>
<feBlend mode="normal" in="SourceGraphic" in2="effect2_dropShadow_4_4130" result="shape"/>
</filter>
</defs>
</svg>
