<svg width="46" height="83" viewBox="0 0 46 83" fill="none" xmlns="http://www.w3.org/2000/svg">
<path d="M22.6851 0C23.0909 0.0793399 23.1256 0.550421 23.2661 0.861995C24.4008 3.52484 25.762 6.08521 27.1537 8.6216C27.3033 8.95136 27.524 9.58691 27.9868 9.40674C31.0761 6.55381 35.6877 5.44305 39.725 6.67612C42.0862 7.33481 44.5457 8.9588 45.1027 11.4803C44.6556 12.2605 43.563 12.4002 42.8829 12.9671C42.268 10.8497 40.7837 8.89847 38.6572 8.10755C35.6638 7.01745 32.2158 7.62407 29.5505 9.29021C29.1157 9.73319 28.0785 10.0696 28.4116 10.8431C32.5117 17.525 36.7365 24.1557 40.1944 31.2046C42.2639 36.0178 43.9837 41.0964 44.1102 46.3618C44.025 48.8535 43.8895 51.366 43.2366 53.7867C42.5168 57.209 41.1688 60.9578 38.0382 62.8942C35.982 64.3083 33.2902 64.7769 30.9149 63.9529C28.4719 62.9918 26.4256 61.124 25.1471 58.8421C24.9636 58.4446 24.781 57.909 24.2595 57.8917C24.3256 57.8545 24.3909 57.8173 24.4595 57.7842C24.338 57.7942 24.2165 57.8066 24.0967 57.8206C24.3107 60.6322 24.2686 63.4769 23.9115 66.2777C23.9744 68.6381 22.1454 70.9324 19.766 71.21C19.4222 71.2092 19.1065 71.4472 19.1396 71.8167C19.104 74.0514 18.6809 76.282 17.7313 78.3143C16.7387 80.4573 14.7321 82.2077 12.3246 82.4441C11.8601 82.4185 11.2461 82.9474 10.9329 82.3995C10.661 81.3102 10.2957 80.2432 10.0444 79.1473C9.94855 78.7936 9.57747 78.263 9.98408 77.9911C11.3543 78.144 12.7907 77.8895 14.0147 77.2391C16.0817 76.0944 17.3081 73.8754 17.7891 71.6274C17.8933 71.0563 17.1825 71.0654 16.8114 70.9423C12.5428 69.9348 10.9585 65.281 9.42292 61.7141C6.508 61.7926 3.49722 60.2744 2.17654 57.6049C0.604618 54.3164 0.58313 50.4114 1.6319 46.961C1.73934 46.5114 2.10216 46.0543 1.88811 45.5833C0.729413 43.0717 0.245936 40.1072 1.2162 37.4493C2.12034 35.0459 3.86499 33.0095 6.008 31.6161C6.40635 31.3484 5.94023 31.0409 5.65675 30.9607C4.13194 30.5045 2.54266 30.0913 1.27901 29.0615C0.0227923 28.2739 -0.363163 26.5028 0.368252 25.2301C1.0352 23.4003 1.56992 21.0995 3.59226 20.3028C6.50635 19.5829 9.6692 20.3796 12.1477 21.9962C13.218 23.0491 12.0502 24.559 11.9626 25.7863C11.8899 26.2185 11.4626 27.3714 12.2949 27.0954C14.3213 26.0367 15.8734 24.278 17.8974 23.1995C17.9057 24.3623 17.9784 25.6185 17.5396 26.707C16.0371 28.1458 14.4304 29.488 12.8767 30.8756C11.6858 31.6492 12.1577 33.3566 11.2858 34.3401C10.0833 34.4905 11.5701 32.3591 10.3527 32.617C8.39976 34.2476 6.18734 35.6195 4.53856 37.5881C3.34515 39.165 2.57572 41.1353 2.53109 43.1188C3.00052 46.7229 5.98238 49.1891 8.35927 51.6519C9.49234 53.1024 10.9461 54.2429 12.2461 55.533C12.7684 55.7693 13.0602 55.1297 13.3048 54.7842C14.7073 52.9701 16.1891 51.1123 16.8809 48.8949C16.9412 48.3089 17.2734 47.3031 16.528 47.0519C14.8403 47.6221 12.7478 47.5535 11.3114 46.3882C10.1965 45.3733 10.5469 43.6998 10.7841 42.3898C11.1105 40.922 11.4122 39.1038 12.9296 38.3889C14.8131 37.9584 16.8643 39.0047 17.7718 40.6807C18.1958 41.1055 18.2892 42.0526 19.0619 41.9427C19.5826 41.0468 20.7462 40.5353 21.0413 39.5088C19.7578 37.1641 18.0974 34.7732 18.0792 31.9847C18.1437 30.807 18.4305 29.65 18.7057 28.5086C18.7949 28.102 19.2214 28.421 19.2197 28.7004C19.7826 31.6632 22.1297 34.0178 22.2223 37.1071C22.6132 39.9047 21.9165 42.8964 19.9693 45.0006C19.614 45.4527 18.9916 45.7345 18.8892 46.3477C17.9999 49.8965 17.0329 53.4759 15.3503 56.7479C15.1098 57.3991 14.1288 57.9842 14.6701 58.7248C16.3478 61.2603 17.6363 64.0471 18.4255 66.9835C18.4966 67.5414 19.1826 67.3397 19.4421 67.0364C21.5685 65.4422 22.2008 62.6984 22.5719 60.214C22.8545 57.1735 22.7892 54.123 23.038 51.0817C23.3281 49.704 24.0355 48.3238 25.3215 47.632C28.3686 46.0535 31.4902 44.4675 33.9828 42.0625C34.3059 41.7733 34.0828 41.041 33.5943 41.3245C30.9662 43.0436 28.0571 44.2675 25.1645 45.4642C24.9653 45.5692 24.6388 45.4709 24.6835 45.2039C24.7843 44.1898 25.0487 43.1998 25.2008 42.1956C25.8587 40.9493 27.1628 40.1559 27.7124 38.8344C28.3628 37.4179 28.1967 35.8063 27.9554 34.3145C27.0157 30.7731 25.0645 27.6227 23.2074 24.502C21.2322 21.4383 19.6388 17.9192 19.8594 14.2027C20.1867 13.4927 20.0148 12.2398 20.9363 12.0134C21.2016 14.6655 22.8413 16.8465 24.0372 19.1374C24.1901 19.5242 24.6256 19.7589 25.0223 19.5837C25.0066 17.2721 25.2694 14.9291 26.0678 12.7531C26.4314 12.3134 26.1711 11.7853 25.8744 11.3952C24.0388 7.9249 21.4322 4.09923 22.6851 0ZM26.5281 13.4762C25.9438 15.3977 25.6926 17.4201 25.6893 19.4251C26.019 23.4978 28.681 26.8557 29.5455 30.793C30.0529 33.6575 30.6257 36.9749 28.7546 39.4947C28.5174 39.7468 28.138 40.5096 28.7695 40.4427C31.0571 39.8105 33.1075 38.565 35.234 37.5493C35.6216 37.3608 36.0985 37.622 36.1439 38.0501C35.7291 42.9097 32.9108 47.5271 28.6166 49.918C26.8479 50.8511 25.0496 52.1395 24.4744 54.1611C24.0826 54.8305 24.2967 55.5958 24.7165 56.1884C25.8033 58.4371 27.9777 60.1008 30.4265 60.5735C32.4571 60.8438 34.453 60.0983 36.1439 59.0239C38.4084 57.3024 39.9704 54.8239 41.0729 52.2371C43.1201 45.8081 41.0721 38.9493 38.396 33.0153C34.8662 26.4739 30.9662 20.1391 27.1934 13.7365C27.0736 13.4746 26.7686 13.4994 26.5281 13.4762ZM3.75507 23.6325C3.04928 23.6887 1.56 23.921 2.16497 24.9483C4.18153 27.0136 7.24438 27.9913 10.094 27.6392C11.1469 27.7053 11.7097 26.0483 10.8196 25.4714C8.82622 24.0061 6.20965 23.3863 3.75507 23.6325ZM2.59225 47.0114C2.20299 47.1155 2.19142 47.5866 2.10629 47.9089C1.49802 50.2949 1.07239 53.0635 2.39803 55.2917C4.43442 58.0603 8.78985 58.638 11.4742 56.4859C11.6362 56.2404 11.5742 55.8735 11.3229 55.7082C8.51464 53.0677 5.49973 50.6106 3.19639 47.4841C3.03771 47.2957 2.87407 46.9775 2.59225 47.0114ZM13.618 59.0628C12.7395 59.8537 11.8626 60.7479 10.7213 61.1859C9.91053 61.4562 10.4006 62.4554 10.6039 63.0174C11.2552 65.1339 12.7568 67.3959 15.1354 67.6695C15.8949 67.9662 16.766 67.9827 17.5453 67.7794C18.09 67.1166 17.4106 66.2761 17.309 65.5629C16.6693 63.5356 15.6974 61.5992 14.461 59.8694C14.2593 59.5545 14.1089 58.9181 13.618 59.0628Z" fill="#987A54"/>
<path d="M14.3465 16.4567C14.4953 15.9022 14.3473 14.9501 15.0936 14.8179C14.973 16.1981 13.9068 17.97 15.192 19.1221C16.0283 19.7444 16.4159 18.4592 16.454 17.8262C16.5465 17.8212 16.6399 17.8163 16.7333 17.813C16.706 18.7444 16.9498 19.8204 16.3275 20.6138C15.9581 21.0444 15.3457 20.8072 15.0465 20.4229C13.9911 19.3931 13.9919 17.7948 14.3465 16.4567Z" fill="#987A54"/>
<path d="M32.0511 26.8326C32.1834 26.8268 32.3156 26.8226 32.4495 26.8193C32.3825 28.4665 31.8123 30.7706 33.5305 31.7921C34.6107 32.0607 34.7388 30.5524 34.6867 29.8045C35.328 30.6318 35.1933 31.8698 35.1842 32.8839C35.1619 33.674 34.0925 33.7409 33.5793 33.3847C32.3197 32.5682 31.9726 30.9053 32.0363 29.4987C32.066 28.9747 31.6561 28.3756 32.028 27.9103C32.033 27.5507 32.028 27.1912 32.0511 26.8326Z" fill="#987A54"/>
<path d="M23.601 30.8965C25.5134 31.0171 26.6151 33.3833 25.7804 35.0222C25.4126 35.6048 24.5845 36.142 23.9357 35.661C22.8977 34.8841 22.8729 33.4378 22.9721 32.2626C23.0299 31.7742 22.9812 31.0262 23.601 30.8965ZM23.8663 32.3668C23.0299 32.7767 23.4018 34.5974 24.4597 34.3222C24.9076 34.1883 25.5986 33.9081 25.4812 33.3246C25.1052 32.8271 24.5002 32.375 23.8663 32.3668Z" fill="#987A54"/>
<path d="M5.3893 41.8327C5.64715 41.017 5.49757 39.5864 6.51411 39.3418C6.42154 40.5831 5.52319 41.6832 5.65955 42.9782C5.62567 43.7055 6.07113 44.7196 6.9199 44.6592C7.67941 44.4146 7.65462 43.4609 8.03644 42.8881C8.33479 43.7138 7.98438 44.5815 7.8414 45.4039C7.7414 45.9047 7.35627 46.5733 6.76122 46.4576C5.01574 45.7468 4.75293 43.3865 5.3893 41.8327Z" fill="#987A54"/>
<path d="M37.3745 43.1379C37.5522 42.7842 37.7555 42.3222 38.2258 42.3404C38.3646 43.0536 37.6571 43.5272 37.4894 44.1834C36.8538 45.3396 36.3009 47.209 37.7274 48.014C38.8357 48.2355 38.8332 46.6801 39.4729 46.1817C39.3704 47.4925 39.3481 49.29 38.0646 50.0215C36.5803 50.0925 35.9778 48.1677 36.1786 46.9437C36.2662 45.6065 36.8398 44.3528 37.3745 43.1379Z" fill="#987A54"/>
<path d="M31.574 50.8991C31.7393 50.4619 32.2732 50.6214 32.5426 50.8636C33.4608 51.5586 34.5848 52.0338 35.3088 52.9529C35.7716 54.0289 34.755 54.9397 34.1286 55.6909C33.9145 55.9322 33.5616 56.3984 33.2401 56.0281C32.3525 55.0876 31.1988 54.4925 30.1104 53.8264C30.517 52.8181 31.0856 51.8727 31.574 50.8991Z" fill="#987A54"/>
<path d="M18.0862 56.2612C19.0961 56.8282 20.0655 57.9844 20.5523 59.1142C20.4986 60.1472 19.2878 60.5935 18.7911 61.4249C18.5779 61.653 18.2696 62.3117 17.9316 61.9299C17.5828 60.8696 16.8299 60.0183 16.0481 59.2497C15.72 58.929 16.0952 58.5365 16.3093 58.277C16.9134 57.6166 17.4341 56.8687 18.0862 56.2612Z" fill="#987A54"/>
</svg>
