<svg width="67" height="122" viewBox="0 0 67 122" fill="none" xmlns="http://www.w3.org/2000/svg">
<path d="M33.4859 0C34.0849 0.117115 34.1362 0.812488 34.3436 1.27241C36.0185 5.20309 38.0278 8.9825 40.0822 12.7265C40.303 13.2133 40.6287 14.1514 41.3119 13.8855C45.8721 9.67421 52.6794 8.0346 58.6389 9.85477C62.1243 10.8271 65.7549 13.2243 66.5771 16.9463C65.9171 18.098 64.3043 18.3041 63.3003 19.141C62.3927 16.0155 60.2016 13.1352 57.0627 11.9677C52.644 10.3586 47.5544 11.2541 43.6201 13.7135C42.9784 14.3674 41.4473 14.8639 41.939 16.0058C47.9911 25.8691 54.2275 35.6567 59.3318 46.0617C62.3866 53.1667 64.9253 60.6633 65.1119 68.4356C64.9863 72.1138 64.7862 75.8224 63.8224 79.3956C62.7599 84.4475 60.7701 89.9812 56.149 92.8395C53.1137 94.9268 49.1403 95.6186 45.6342 94.4023C42.028 92.9835 39.0074 90.2264 37.1202 86.8581C36.8493 86.2713 36.5797 85.4808 35.8099 85.4551C35.9075 85.4002 36.0039 85.3453 36.1052 85.2965C35.9258 85.3112 35.7465 85.3295 35.5696 85.3502C35.8856 89.5005 35.8234 93.6996 35.2963 97.834C35.389 101.318 32.6893 104.705 29.1771 105.115C28.6696 105.113 28.2035 105.465 28.2523 106.01C28.1999 109.309 27.5753 112.602 26.1735 115.601C24.7084 118.765 21.7463 121.349 18.1926 121.697C17.507 121.66 16.6006 122.44 16.1382 121.632C15.7369 120.024 15.1976 118.449 14.8268 116.831C14.6853 116.309 14.1375 115.526 14.7377 115.124C16.7604 115.35 18.8807 114.974 20.6874 114.014C23.7385 112.325 25.5489 109.049 26.2589 105.731C26.4126 104.888 25.3635 104.901 24.8157 104.719C18.5147 103.232 16.176 96.3627 13.9094 91.0974C9.6066 91.2133 5.16232 88.9723 3.21284 85.0318C0.89249 80.1776 0.860771 74.4134 2.40889 69.3201C2.56748 68.6564 3.10304 67.9818 2.78707 67.2864C1.0767 63.579 0.363031 59.203 1.79525 55.2797C3.12988 51.732 5.7052 48.7261 8.86853 46.6692C9.45655 46.274 8.76849 45.8201 8.35005 45.7018C6.09924 45.0284 3.75328 44.4184 1.88797 42.8984C0.0336442 41.7358 -0.536073 39.1214 0.543584 37.2427C1.52808 34.5417 2.31739 31.1454 5.30261 29.9693C9.60416 28.9067 14.2729 30.0828 17.9315 32.469C19.5114 34.0232 17.7876 36.2521 17.6583 38.0637C17.5509 38.7017 16.9202 40.4036 18.1487 39.9961C21.14 38.4333 23.4311 35.8373 26.4187 34.2453C26.4309 35.9617 26.5383 37.816 25.8905 39.4227C23.6726 41.5467 21.3011 43.5279 19.0075 45.5762C17.2496 46.718 17.9462 49.2385 16.6591 50.6902C14.8841 50.9122 17.0788 47.766 15.2818 48.1466C12.3991 50.5536 9.13326 52.5787 6.69946 55.4846C4.93785 57.8123 3.80207 60.7206 3.7362 63.6485C4.42913 68.9687 8.83071 72.6091 12.3393 76.2445C14.0118 78.3855 16.1577 80.0691 18.0767 81.9734C18.8477 82.3223 19.2784 81.3781 19.6395 80.8681C21.7097 78.1903 23.8971 75.4479 24.9182 72.1748C25.0073 71.3098 25.4977 69.8251 24.3973 69.4543C21.9062 70.296 18.8172 70.1948 16.697 68.4746C15.0512 66.9765 15.5685 64.5061 15.9186 62.5725C16.4005 60.4059 16.8458 57.722 19.0856 56.6667C21.8659 56.0311 24.8938 57.5756 26.2333 60.0497C26.8592 60.6767 26.997 62.0748 28.1377 61.9125C28.9062 60.5901 30.6239 59.8349 31.0594 58.3198C29.1649 54.8588 26.714 51.3294 26.6871 47.2133C26.7823 45.4749 27.2056 43.767 27.6119 42.0822C27.7436 41.482 28.3731 41.9529 28.3707 42.3652C29.2015 46.7388 32.6661 50.2144 32.8028 54.7746C33.3798 58.9041 32.3514 63.3203 29.4772 66.4263C28.9526 67.0937 28.034 67.5097 27.8827 68.4149C26.57 73.6533 25.1427 78.9369 22.6589 83.7667C22.3039 84.7281 20.8558 85.5918 21.6548 86.6849C24.1313 90.4277 26.0332 94.5413 27.1983 98.8758C27.3032 99.6993 28.3158 99.4016 28.6988 98.9539C31.8378 96.6006 32.771 92.5504 33.3188 88.8832C33.736 84.395 33.6396 79.8922 34.0068 75.4027C34.4351 73.3691 35.4793 71.3318 37.3776 70.3107C41.8755 67.9806 46.4833 65.6395 50.1627 62.0894C50.6397 61.6624 50.3103 60.5816 49.5893 61C45.7098 63.5375 41.4156 65.3442 37.1458 67.1107C36.8518 67.2657 36.3699 67.1205 36.4358 66.7265C36.5846 65.2296 36.975 63.7681 37.1995 62.2858C38.1705 60.4461 40.0956 59.275 40.9069 57.3243C41.867 55.2333 41.6218 52.8544 41.2656 50.6524C39.8785 45.4249 36.9982 40.7744 34.2569 36.1679C31.3413 31.6455 28.9892 26.451 29.3149 20.9649C29.798 19.9169 29.5443 18.0675 30.9045 17.7332C31.2961 21.648 33.7165 24.8675 35.4818 28.2492C35.7075 28.8201 36.3504 29.1666 36.9359 28.908C36.9128 25.4958 37.3007 22.0372 38.4792 18.8251C39.016 18.1761 38.6317 17.3965 38.1937 16.8207C35.4842 11.6981 31.6365 6.05096 33.4859 0ZM39.1587 19.8925C38.2962 22.7289 37.9253 25.7141 37.9204 28.6737C38.4072 34.6857 42.3367 39.6423 43.6127 45.4542C44.3618 49.6825 45.2072 54.5794 42.4452 58.299C42.0951 58.6711 41.5352 59.7971 42.4672 59.6983C45.844 58.765 48.8707 56.9266 52.0097 55.4273C52.5818 55.1491 53.2857 55.5346 53.3528 56.1666C52.7404 63.3399 48.5804 70.1557 42.2415 73.6851C39.6308 75.0624 36.9762 76.9643 36.1271 79.9483C35.5489 80.9364 35.8648 82.0661 36.4846 82.9408C38.0888 86.2603 41.2985 88.7161 44.9132 89.4139C47.9106 89.8128 50.8568 88.7124 53.3528 87.1265C56.6955 84.5853 59.0012 80.9267 60.6286 77.1082C63.6504 67.6182 60.6274 57.4939 56.6772 48.7346C51.4668 39.0787 45.7098 29.7278 40.1408 20.2768C39.9639 19.8901 39.5137 19.9267 39.1587 19.8925ZM5.54294 34.8845C4.50111 34.9675 2.30275 35.3103 3.19576 36.8267C6.17244 39.8753 10.6936 41.3185 14.9 40.7988C16.4542 40.8964 17.285 38.4504 15.9711 37.5989C13.0286 35.4359 9.1662 34.521 5.54294 34.8845ZM3.82647 69.3945C3.25188 69.5482 3.2348 70.2436 3.10914 70.7194C2.21126 74.2413 1.58298 78.3282 3.53978 81.6172C6.54574 85.704 12.9749 86.5568 16.9373 83.38C17.1764 83.0177 17.0849 82.476 16.714 82.232C12.5686 78.3343 8.11826 74.7074 4.71826 70.0923C4.48403 69.8141 4.24248 69.3445 3.82647 69.3945ZM20.1018 87.1838C18.805 88.3513 17.5107 89.6713 15.8259 90.3179C14.6291 90.7168 15.3526 92.1917 15.6527 93.0213C16.614 96.1456 18.8307 99.4846 22.3417 99.8884C23.4628 100.326 24.7486 100.351 25.8991 100.051C26.703 99.0722 25.7002 97.8315 25.5501 96.7787C24.6059 93.7862 23.1712 90.9278 21.3462 88.3745C21.0485 87.9097 20.8265 86.9703 20.1018 87.1838Z" fill="#DDD9D4"/>
<path d="M21.1773 24.2903C21.3969 23.4717 21.1785 22.0663 22.2801 21.8711C22.102 23.9084 20.5283 26.524 22.4253 28.2246C23.6599 29.1432 24.232 27.2462 24.2881 26.3117C24.4248 26.3044 24.5626 26.2971 24.7005 26.2922C24.6602 27.6671 25.0201 29.2555 24.1015 30.4266C23.5562 31.0622 22.6522 30.7121 22.2106 30.1448C20.6527 28.6247 20.6539 26.2654 21.1773 24.2903Z" fill="#DDD9D4"/>
<path d="M47.3107 39.6094C47.5059 39.6008 47.7011 39.5947 47.8987 39.5898C47.7999 42.0212 46.9581 45.4224 49.4944 46.9303C51.0889 47.3268 51.278 45.1004 51.2011 43.9963C52.1478 45.2175 51.9489 47.045 51.9355 48.5418C51.9026 49.7081 50.324 49.8069 49.5664 49.2811C47.7072 48.0758 47.1948 45.6213 47.2887 43.5449C47.3326 42.7715 46.7275 41.887 47.2765 41.2002C47.2838 40.6695 47.2765 40.1388 47.3107 39.6094Z" fill="#DDD9D4"/>
<path d="M34.838 45.6055C37.6609 45.7836 39.2871 49.2763 38.055 51.6955C37.5121 52.5555 36.2897 53.3485 35.3321 52.6385C33.7998 51.4917 33.7632 49.3568 33.9096 47.622C33.995 46.9011 33.923 45.797 34.838 45.6055ZM35.2296 47.7758C33.995 48.3809 34.544 51.0684 36.1055 50.6622C36.7667 50.4645 37.7866 50.051 37.6134 49.1897C37.0583 48.4553 36.1653 47.788 35.2296 47.7758Z" fill="#DDD9D4"/>
<path d="M7.95312 61.7512C8.33375 60.5471 8.11294 58.4353 9.61348 58.0742C9.47684 59.9066 8.15076 61.5303 8.35205 63.442C8.30203 64.5156 8.95958 66.0124 10.2125 65.9234C11.3336 65.5623 11.297 64.1545 11.8606 63.309C12.301 64.5278 11.7838 65.8087 11.5727 67.0226C11.4251 67.7619 10.8566 68.7488 9.97824 68.578C7.40171 67.5288 7.01376 64.0447 7.95312 61.7512Z" fill="#DDD9D4"/>
<path d="M55.1693 63.678C55.4316 63.1559 55.7317 62.4739 56.4258 62.5008C56.6308 63.5536 55.5865 64.2526 55.3388 65.2213C54.4007 66.928 53.5845 69.6875 55.6902 70.8757C57.3261 71.2027 57.3225 68.9067 58.2667 68.1711C58.1154 70.1059 58.0825 72.7593 56.1879 73.839C53.9969 73.9439 53.1075 71.1026 53.404 69.2959C53.5333 67.322 54.38 65.4713 55.1693 63.678Z" fill="#DDD9D4"/>
<path d="M46.6078 75.1339C46.8518 74.4885 47.6399 74.724 48.0376 75.0814C49.3929 76.1074 51.0521 76.8088 52.1208 78.1654C52.8039 79.7538 51.3034 81.0982 50.3787 82.2071C50.0627 82.5634 49.5418 83.2514 49.0672 82.7049C47.757 81.3166 46.0539 80.4382 44.4473 79.4549C45.0475 77.9666 45.8868 76.571 46.6078 75.1339Z" fill="#DDD9D4"/>
<path d="M26.6971 83.0469C28.1879 83.8838 29.6189 85.5905 30.3375 87.2581C30.2582 88.7831 28.4709 89.4419 27.7377 90.6691C27.423 91.0058 26.9679 91.9781 26.469 91.4145C25.9542 89.8493 24.8428 88.5928 23.6887 87.4582C23.2044 86.9849 23.7583 86.4054 24.0742 86.0223C24.966 85.0476 25.7346 83.9435 26.6971 83.0469Z" fill="#DDD9D4"/>
</svg>
