<svg width="47" height="47" viewBox="0 0 47 47" fill="none" xmlns="http://www.w3.org/2000/svg">
<path d="M29.3747 44.5522H17.6247C8.98843 44.5522 6.36426 41.928 6.36426 33.2917V13.7084C6.36426 5.07217 8.98843 2.448 17.6247 2.448H29.3747C38.0109 2.448 40.6351 5.07217 40.6351 13.7084V33.2917C40.6351 41.928 38.0109 44.5522 29.3747 44.5522ZM17.6247 5.3855C10.6138 5.3855 9.30176 6.71716 9.30176 13.7084V33.2917C9.30176 40.283 10.6138 41.6147 17.6247 41.6147H29.3747C36.3855 41.6147 37.6976 40.283 37.6976 33.2917V13.7084C37.6976 6.71716 36.3855 5.3855 29.3747 5.3855H17.6247Z" fill="#DDD9D4"/>
<path d="M27.4163 12.2395H19.583C18.7801 12.2395 18.1143 11.5737 18.1143 10.7708C18.1143 9.96784 18.7801 9.302 19.583 9.302H27.4163C28.2193 9.302 28.8851 9.96784 28.8851 10.7708C28.8851 11.5737 28.2193 12.2395 27.4163 12.2395Z" fill="#DDD9D4"/>
<path d="M23.5003 38.8926C21.0132 38.8926 18.9961 36.8755 18.9961 34.3884C18.9961 31.9014 21.0132 29.8843 23.5003 29.8843C25.9873 29.8843 28.0044 31.9014 28.0044 34.3884C28.0044 36.8755 25.9873 38.8926 23.5003 38.8926ZM23.5003 32.8022C22.6386 32.8022 21.9336 33.5072 21.9336 34.3689C21.9336 35.2305 22.6386 35.9355 23.5003 35.9355C24.3619 35.9355 25.0669 35.2305 25.0669 34.3689C25.0669 33.5072 24.3619 32.8022 23.5003 32.8022Z" fill="#DDD9D4"/>
</svg>
