<svg width="37" height="39" viewBox="0 0 37 39" fill="none" xmlns="http://www.w3.org/2000/svg">
<path d="M5 0.5C2.519 0.5 0.5 2.519 0.5 5V26C0.5 28.481 2.519 30.5 5 30.5H14.5V27.5H5C4.173 27.5 3.5 26.827 3.5 26V5C3.5 4.173 4.173 3.5 5 3.5H16C16.827 3.5 17.5 4.173 17.5 5V7.53125C18.379 6.96625 19.401 6.60939 20.5 6.52539V5C20.5 2.519 18.481 0.5 16 0.5H5ZM21 8.5C18.5325 8.5 16.5 10.5325 16.5 13V34C16.5 36.4675 18.5325 38.5 21 38.5H32C34.4675 38.5 36.5 36.4675 36.5 34V13C36.5 10.5325 34.4675 8.5 32 8.5H21ZM21 11.5H32C32.8465 11.5 33.5 12.1535 33.5 13V34C33.5 34.8465 32.8465 35.5 32 35.5H21C20.1535 35.5 19.5 34.8465 19.5 34V13C19.5 12.1535 20.1535 11.5 21 11.5ZM9 21.5C8.80123 21.4972 8.60389 21.5339 8.41944 21.608C8.23498 21.6822 8.0671 21.7922 7.92555 21.9318C7.78399 22.0713 7.67159 22.2376 7.59487 22.421C7.51815 22.6044 7.47864 22.8012 7.47864 23C7.47864 23.1988 7.51815 23.3956 7.59487 23.579C7.67159 23.7624 7.78399 23.9287 7.92555 24.0682C8.0671 24.2078 8.23498 24.3178 8.41944 24.392C8.60389 24.4661 8.80123 24.5028 9 24.5H12C12.1988 24.5028 12.3961 24.4661 12.5806 24.392C12.765 24.3178 12.9329 24.2078 13.0745 24.0682C13.216 23.9287 13.3284 23.7624 13.4051 23.579C13.4819 23.3956 13.5214 23.1988 13.5214 23C13.5214 22.8012 13.4819 22.6044 13.4051 22.421C13.3284 22.2376 13.216 22.0713 13.0745 21.9318C12.9329 21.7922 12.765 21.6822 12.5806 21.608C12.3961 21.5339 12.1988 21.4972 12 21.5H9ZM25 29.5C24.8012 29.4972 24.6039 29.5339 24.4194 29.608C24.235 29.6822 24.0671 29.7922 23.9255 29.9318C23.784 30.0713 23.6716 30.2376 23.5949 30.421C23.5181 30.6044 23.4786 30.8012 23.4786 31C23.4786 31.1988 23.5181 31.3956 23.5949 31.579C23.6716 31.7624 23.784 31.9287 23.9255 32.0682C24.0671 32.2078 24.235 32.3178 24.4194 32.392C24.6039 32.4661 24.8012 32.5028 25 32.5H28C28.1988 32.5028 28.3961 32.4661 28.5806 32.392C28.765 32.3178 28.9329 32.2078 29.0745 32.0682C29.216 31.9287 29.3284 31.7624 29.4051 31.579C29.4819 31.3956 29.5214 31.1988 29.5214 31C29.5214 30.8012 29.4819 30.6044 29.4051 30.421C29.3284 30.2376 29.216 30.0713 29.0745 29.9318C28.9329 29.7922 28.765 29.6822 28.5806 29.608C28.3961 29.5339 28.1988 29.4972 28 29.5H25Z" fill="#DDD9D4"/>
</svg>
