<svg width="25" height="25" viewBox="0 0 25 25" fill="none" xmlns="http://www.w3.org/2000/svg">
<path d="M20.576 6.5C20.9537 6.5 21.3159 6.64588 21.5829 6.90554C21.85 7.16521 22 7.51739 22 7.88462C22 8.25184 21.85 8.60402 21.5829 8.86369C21.3159 9.12335 20.9537 9.26923 20.576 9.26923C20.1983 9.26923 19.8362 9.12335 19.5691 8.86369C19.3021 8.60402 19.152 8.25184 19.152 7.88462C19.152 7.51739 19.3021 7.16521 19.5691 6.90554C19.8362 6.64588 20.1983 6.5 20.576 6.5ZM16.3041 6.96154C16.4299 6.95981 16.5547 6.98241 16.6715 7.02802C16.7882 7.07363 16.8945 7.14135 16.9841 7.22724C17.0736 7.31312 17.1448 7.41547 17.1933 7.52832C17.2419 7.64117 17.2669 7.76228 17.2669 7.88462C17.2669 8.00695 17.2419 8.12806 17.1933 8.24091C17.1448 8.35376 17.0736 8.45611 16.9841 8.54199C16.8945 8.62788 16.7882 8.6956 16.6715 8.74121C16.5547 8.78682 16.4299 8.80942 16.3041 8.80769H3.96284C3.83705 8.80942 3.71215 8.78682 3.59542 8.74121C3.47868 8.6956 3.37243 8.62788 3.28284 8.54199C3.19325 8.45611 3.12212 8.35376 3.07356 8.24091C3.025 8.12806 3 8.00695 3 7.88462C3 7.76228 3.025 7.64117 3.07356 7.52832C3.12212 7.41547 3.19325 7.31312 3.28284 7.22724C3.37243 7.14135 3.47868 7.07363 3.59542 7.02802C3.71215 6.98241 3.83705 6.95981 3.96284 6.96154H16.3041ZM20.576 11.1154C20.9537 11.1154 21.3159 11.2613 21.5829 11.5209C21.85 11.7806 22 12.1328 22 12.5C22 12.8672 21.85 13.2194 21.5829 13.4791C21.3159 13.7387 20.9537 13.8846 20.576 13.8846C20.1983 13.8846 19.8362 13.7387 19.5691 13.4791C19.3021 13.2194 19.152 12.8672 19.152 12.5C19.152 12.1328 19.3021 11.7806 19.5691 11.5209C19.8362 11.2613 20.1983 11.1154 20.576 11.1154ZM16.3041 11.5769C16.4299 11.5752 16.5547 11.5978 16.6715 11.6434C16.7882 11.689 16.8945 11.7567 16.9841 11.8426C17.0736 11.9285 17.1448 12.0309 17.1933 12.1437C17.2419 12.2566 17.2669 12.3777 17.2669 12.5C17.2669 12.6223 17.2419 12.7434 17.1933 12.8563C17.1448 12.9691 17.0736 13.0715 16.9841 13.1574C16.8945 13.2433 16.7882 13.311 16.6715 13.3566C16.5547 13.4022 16.4299 13.4248 16.3041 13.4231H3.96284C3.83705 13.4248 3.71215 13.4022 3.59542 13.3566C3.47868 13.311 3.37243 13.2433 3.28284 13.1574C3.19325 13.0715 3.12212 12.9691 3.07356 12.8563C3.025 12.7434 3 12.6223 3 12.5C3 12.3777 3.025 12.2566 3.07356 12.1437C3.12212 12.0309 3.19325 11.9285 3.28284 11.8426C3.37243 11.7567 3.47868 11.689 3.59542 11.6434C3.71215 11.5978 3.83705 11.5752 3.96284 11.5769H16.3041ZM20.576 15.7308C20.9537 15.7308 21.3159 15.8766 21.5829 16.1363C21.85 16.396 22 16.7482 22 17.1154C22 17.4826 21.85 17.8348 21.5829 18.0945C21.3159 18.3541 20.9537 18.5 20.576 18.5C20.1983 18.5 19.8362 18.3541 19.5691 18.0945C19.3021 17.8348 19.152 17.4826 19.152 17.1154C19.152 16.7482 19.3021 16.396 19.5691 16.1363C19.8362 15.8766 20.1983 15.7308 20.576 15.7308ZM16.3041 16.1923C16.4299 16.1906 16.5547 16.2132 16.6715 16.2588C16.7882 16.3044 16.8945 16.3721 16.9841 16.458C17.0736 16.5439 17.1448 16.6462 17.1933 16.7591C17.2419 16.8719 17.2669 16.9931 17.2669 17.1154C17.2669 17.2377 17.2419 17.3588 17.1933 17.4717C17.1448 17.5845 17.0736 17.6869 16.9841 17.7728C16.8945 17.8587 16.7882 17.9264 16.6715 17.972C16.5547 18.0176 16.4299 18.0402 16.3041 18.0385H3.96284C3.83705 18.0402 3.71215 18.0176 3.59542 17.972C3.47868 17.9264 3.37243 17.8587 3.28284 17.7728C3.19325 17.6869 3.12212 17.5845 3.07356 17.4717C3.025 17.3588 3 17.2377 3 17.1154C3 16.9931 3.025 16.8719 3.07356 16.7591C3.12212 16.6462 3.19325 16.5439 3.28284 16.458C3.37243 16.3721 3.47868 16.3044 3.59542 16.2588C3.71215 16.2132 3.83705 16.1906 3.96284 16.1923H16.3041Z" fill="#987A54"/>
</svg>
