<svg width="40" height="40" viewBox="0 0 40 40" fill="none" xmlns="http://www.w3.org/2000/svg">
<rect width="40" height="40" rx="20" fill="white" fill-opacity="0.08"/>
<g clip-path="url(#clip0_4_848)">
<path d="M20.2541 12.5C17.2482 12.5 14.2773 14.504 14.2773 17.7473C14.2773 19.8099 15.4375 20.9818 16.1407 20.9818C16.4307 20.9818 16.5977 20.1732 16.5977 19.9446C16.5977 19.6722 15.9034 19.0921 15.9034 17.9582C15.9034 15.6027 17.6964 13.9327 20.0168 13.9327C22.012 13.9327 23.4886 15.0665 23.4886 17.1496C23.4886 18.7053 22.8646 21.6234 20.843 21.6234C20.1135 21.6234 19.4895 21.096 19.4895 20.3402C19.4895 19.2327 20.2629 18.1604 20.2629 17.0178C20.2629 15.0782 17.5118 15.4298 17.5118 17.7736C17.5118 18.2659 17.5734 18.8108 17.7931 19.2591C17.3888 20.9994 16.5626 23.5922 16.5626 25.3853C16.5626 25.939 16.6417 26.4839 16.6944 27.0377C16.794 27.149 16.7442 27.1373 16.8966 27.0816C18.3732 25.0601 18.3205 24.6645 18.9885 22.0189C19.3488 22.7045 20.2805 23.0737 21.0188 23.0737C24.1303 23.0737 25.5278 20.0413 25.5278 17.3078C25.5278 14.3985 23.014 12.5 20.2541 12.5Z" fill="white"/>
</g>
<defs>
<clipPath id="clip0_4_848">
<rect width="11.4553" height="14.98" fill="white" transform="translate(14.2773 12.5)"/>
</clipPath>
</defs>
</svg>
