<svg width="84" height="84" viewBox="0 0 84 84" fill="none" xmlns="http://www.w3.org/2000/svg">
<g filter="url(#filter0_b_4_1012)">
<rect width="84" height="84" rx="42" fill="#987A54" fill-opacity="0.6"/>
<rect width="84" height="84" rx="42" fill="black" fill-opacity="0.2"/>
<rect width="84" height="84" rx="42" fill="#987A54" fill-opacity="0.4"/>
<path d="M35.4605 56.6934C34.2097 56.6934 33.0222 56.3925 31.9772 55.7909C29.5072 54.3659 28.1455 51.4684 28.1455 47.6525V36.3634C28.1455 32.5317 29.5072 29.65 31.9772 28.225C34.4472 26.8 37.6297 27.0692 40.9547 28.985L50.7238 34.6217C54.033 36.5375 55.8697 39.1659 55.8697 42.0159C55.8697 44.8659 54.0488 47.4942 50.7238 49.41L40.9547 55.0467C39.0388 56.1392 37.1705 56.6934 35.4605 56.6934ZM35.4605 29.6817C34.6055 29.6817 33.8455 29.8717 33.1647 30.2675C31.4547 31.2492 30.5205 33.4184 30.5205 36.3634V47.6367C30.5205 50.5817 31.4547 52.735 33.1647 53.7325C34.8747 54.73 37.218 54.445 39.7672 52.9725L49.5363 47.3359C52.0855 45.8634 53.4947 43.9792 53.4947 42C53.4947 40.0209 52.0855 38.1367 49.5363 36.6642L39.7672 31.0275C38.2155 30.1409 36.7588 29.6817 35.4605 29.6817Z" fill="white"/>
</g>
<defs>
<filter id="filter0_b_4_1012" x="-20" y="-20" width="124" height="124" filterUnits="userSpaceOnUse" color-interpolation-filters="sRGB">
<feFlood flood-opacity="0" result="BackgroundImageFix"/>
<feGaussianBlur in="BackgroundImageFix" stdDeviation="10"/>
<feComposite in2="SourceAlpha" operator="in" result="effect1_backgroundBlur_4_1012"/>
<feBlend mode="normal" in="SourceGraphic" in2="effect1_backgroundBlur_4_1012" result="shape"/>
</filter>
</defs>
</svg>
