<svg width="39" height="25" viewBox="0 0 39 25" fill="none" xmlns="http://www.w3.org/2000/svg">
<rect width="39" height="25" fill="#1E1E1E"/>
<g clip-path="url(#clip0_0_1)">
<rect width="1920" height="9611" transform="translate(-970 -1230)" fill="#1C1B1B"/>
<path opacity="0.35" d="M17.7821 8.89105C17.7821 3.97996 13.8021 0 8.89105 0C3.97996 0 0 3.97996 0 8.89105C0 13.8021 3.97996 17.7821 8.89105 17.7821C9.16425 17.7821 9.43259 17.7659 9.69933 17.7417V23.1151C9.69933 25.0938 12.344 25.7291 13.2606 23.9751C15.3007 20.076 17.4798 14.7979 17.732 9.82542C17.7643 9.51666 17.7821 9.20628 17.7821 8.89105Z" fill="#987A54"/>
<path d="M38.7977 8.89105C38.7977 3.97996 34.8178 0 29.9067 0C24.9956 0 21.0156 3.97996 21.0156 8.89105C21.0156 13.8021 24.9956 17.7821 29.9067 17.7821C30.1799 17.7821 30.4482 17.7659 30.715 17.7417V23.1151C30.715 25.0938 33.3596 25.7291 34.2762 23.9751C36.3163 20.076 38.4954 14.7979 38.7476 9.82542C38.7799 9.51666 38.7977 9.20628 38.7977 8.89105Z" fill="#987A54"/>
</g>
<defs>
<clipPath id="clip0_0_1">
<rect width="1920" height="9611" fill="white" transform="translate(-970 -1230)"/>
</clipPath>
</defs>
</svg>
