<svg width="13" height="14" viewBox="0 0 13 14" fill="none" xmlns="http://www.w3.org/2000/svg">
<path fill-rule="evenodd" clip-rule="evenodd" d="M1.64003 6.77295C1.7811 6.66007 1.99419 6.69157 2.11599 6.84331C3.12332 8.09836 4.0721 9.39312 5.01731 10.683C5.13762 10.8472 5.25786 11.0113 5.37817 11.1752C5.49326 11.332 5.46773 11.5449 5.32114 11.6506C5.17455 11.7563 4.96242 11.7148 4.84732 11.558C4.72671 11.3936 4.60636 11.2294 4.48614 11.0653C3.53975 9.77388 2.60129 8.49322 1.60512 7.25209C1.48332 7.10035 1.49895 6.88583 1.64003 6.77295Z" fill="#987A54"/>
<path fill-rule="evenodd" clip-rule="evenodd" d="M9.77725 10.0215C9.6583 10.1782 9.43682 10.2131 9.28257 10.0994C8.99149 9.88477 8.70091 9.67003 8.41058 9.45547C6.71375 8.20147 5.02484 6.95334 3.28687 5.77199C3.12829 5.6642 3.09142 5.44641 3.20453 5.28554C3.31764 5.12467 3.53789 5.08165 3.69648 5.18944C5.44643 6.37893 7.14741 7.63601 8.84378 8.88969C9.13369 9.10395 9.42347 9.3181 9.71333 9.5318C9.86758 9.64552 9.8962 9.86477 9.77725 10.0215Z" fill="#987A54"/>
<path fill-rule="evenodd" clip-rule="evenodd" d="M10.1666 4.2076C10.128 4.391 9.94799 4.50933 9.76459 4.47189L3.78334 3.25102C3.59994 3.21359 3.48259 3.03457 3.52123 2.85117C3.55987 2.66777 3.73986 2.54944 3.92326 2.58687L9.90451 3.80774C10.0879 3.84518 10.2053 4.0242 10.1666 4.2076Z" fill="#987A54"/>
</svg>
