<svg width="13" height="11" viewBox="0 0 13 11" fill="none" xmlns="http://www.w3.org/2000/svg">
<path fill-rule="evenodd" clip-rule="evenodd" d="M1.23871 7.39279C2.38145 2.32587 7.02857 0.438816 9.19571 0.119652C9.45705 0.0811639 9.7001 0.261818 9.73859 0.523153C9.77708 0.784489 9.59642 1.02754 9.33509 1.06603C7.36288 1.35649 3.19087 3.08497 2.17186 7.60324C2.11375 7.86093 1.85774 8.02271 1.60006 7.96459C1.34238 7.90648 1.1806 7.65047 1.23871 7.39279Z" fill="#987A54"/>
<path fill-rule="evenodd" clip-rule="evenodd" d="M5.62228 10.3932C5.17241 6.3479 8.13035 3.76731 9.64978 2.9786C9.88423 2.8569 10.1729 2.9483 10.2946 3.18275C10.4163 3.41721 10.3249 3.70592 10.0905 3.82762C8.74594 4.52555 6.1853 6.80115 6.57301 10.2875C6.6022 10.55 6.41304 10.7865 6.15051 10.8157C5.88797 10.8449 5.65148 10.6558 5.62228 10.3932Z" fill="#987A54"/>
</svg>
