<svg width="48" height="47" viewBox="0 0 48 47" fill="none" xmlns="http://www.w3.org/2000/svg">
<path d="M22.042 40.6355C11.5062 40.6355 2.94824 32.0776 2.94824 21.5417C2.94824 11.0059 11.5062 2.448 22.042 2.448C32.5778 2.448 41.1357 11.0059 41.1357 21.5417C41.1357 32.0776 32.5778 40.6355 22.042 40.6355ZM22.042 5.3855C13.1316 5.3855 5.88574 12.6313 5.88574 21.5417C5.88574 30.4522 13.1316 37.698 22.042 37.698C30.9524 37.698 38.1982 30.4522 38.1982 21.5417C38.1982 12.6313 30.9524 5.3855 22.042 5.3855Z" fill="#DDD9D4"/>
<path d="M39.9798 44.6304C39.8231 44.6304 39.6665 44.6108 39.5294 44.5913C38.609 44.4738 36.9444 43.8471 36.0044 41.0467C35.5148 39.5779 35.6911 38.1092 36.494 36.9929C37.2969 35.8767 38.6481 35.25 40.1952 35.25C42.1927 35.25 43.7594 36.0138 44.4644 37.365C45.1694 38.7163 44.9736 40.4396 43.8573 42.1042C42.4669 44.1996 40.959 44.6304 39.9798 44.6304ZM38.8048 40.1263C39.1377 41.1446 39.6077 41.6537 39.9211 41.6929C40.2344 41.7321 40.8219 41.36 41.429 40.4788C41.9969 39.6367 42.0361 39.0296 41.899 38.7554C41.7619 38.4813 41.2136 38.1875 40.1952 38.1875C39.5881 38.1875 39.1377 38.3833 38.8831 38.7162C38.6481 39.0492 38.609 39.5583 38.8048 40.1263Z" fill="#DDD9D4"/>
</svg>
