<svg width="17" height="17" viewBox="0 0 17 17" fill="none" xmlns="http://www.w3.org/2000/svg">
<path d="M8.14616 15.4061C4.14408 15.4061 0.885742 12.1478 0.885742 8.14567C0.885742 4.14359 4.14408 0.885254 8.14616 0.885254C12.1482 0.885254 15.4066 4.14359 15.4066 8.14567C15.4066 12.1478 12.1482 15.4061 8.14616 15.4061ZM8.14616 1.94775C4.72491 1.94775 1.94824 4.7315 1.94824 8.14567C1.94824 11.5598 4.72491 14.3436 8.14616 14.3436C11.5674 14.3436 14.3441 11.5598 14.3441 8.14567C14.3441 4.7315 11.5674 1.94775 8.14616 1.94775Z" fill="#987A54"/>
<path d="M15.5829 16.1146C15.4483 16.1146 15.3137 16.065 15.2074 15.9588L13.7908 14.5421C13.5854 14.3367 13.5854 13.9967 13.7908 13.7913C13.9962 13.5859 14.3362 13.5859 14.5416 13.7913L15.9583 15.2079C16.1637 15.4134 16.1637 15.7534 15.9583 15.9588C15.852 16.065 15.7174 16.1146 15.5829 16.1146Z" fill="#987A54"/>
</svg>
