<svg width="13" height="7" viewBox="0 0 13 7" fill="none" xmlns="http://www.w3.org/2000/svg">
<path d="M12.4062 3.19158C12.326 3.11608 12.2195 3.07511 12.1095 3.07629L2.34504 3.07628L4.01888 1.40245C4.10081 1.32285 4.14705 1.21341 4.14705 1.0987C4.14705 0.983987 4.10081 0.874544 4.01829 0.794363C3.85091 0.631662 3.58286 0.635173 3.41957 0.803142L1.06625 3.15647C1.02879 3.18339 0.996018 3.21616 0.96851 3.2542L0.722702 3.50001L0.96734 3.74465C0.994847 3.78269 1.02821 3.81605 1.06625 3.84356L3.41957 6.19688C3.52609 6.30691 3.68294 6.35022 3.83101 6.31101C3.97908 6.27296 4.09496 6.15708 4.133 6.00901C4.17221 5.86094 4.1289 5.70409 4.01888 5.59758L2.34504 3.92374L12.1095 3.92374C12.2839 3.92608 12.4425 3.82132 12.5086 3.6592C12.5736 3.49709 12.5332 3.31156 12.4062 3.19158Z" fill="#987A54"/>
</svg>
