<svg width="24" height="29" viewBox="0 0 24 29" fill="none" xmlns="http://www.w3.org/2000/svg">
<path d="M22.5649 10.1072C22.4419 10.1842 19.5139 11.8092 19.5139 15.4122C19.6519 19.5212 23.2089 20.9622 23.2699 20.9622C23.2089 21.0392 22.7329 22.9252 21.3229 24.9022C20.2039 26.6052 18.9619 28.3222 17.0759 28.3222C15.2819 28.3222 14.6379 27.1872 12.5679 27.1872C10.3449 27.1872 9.71592 28.3222 8.01392 28.3222C6.12792 28.3222 4.79392 26.5132 3.61392 24.8262C2.08092 22.6182 0.777923 19.1532 0.731923 15.8262C0.700923 14.0632 1.03892 12.3302 1.89692 10.8582C3.10792 8.80322 5.26992 7.40822 7.63092 7.36222C9.43992 7.30122 11.0499 8.60422 12.1539 8.60422C13.2119 8.60422 15.1899 7.36222 17.4279 7.36222C18.3939 7.36322 20.9699 7.65422 22.5649 10.1072ZM12.0009 7.01022C11.6789 5.40022 12.5679 3.79022 13.3959 2.76322C14.4539 1.52122 16.1249 0.678223 17.5659 0.678223C17.6579 2.28822 17.0749 3.86722 16.0329 5.01722C15.0979 6.25922 13.4879 7.19422 12.0009 7.01022Z" fill="white"/>
</svg>
