<svg width="29" height="29" viewBox="0 0 29 29" fill="none" xmlns="http://www.w3.org/2000/svg">
<path d="M20.3333 25.2918H8.66658C4.40825 25.2918 1.95825 22.8418 1.95825 18.5835V10.4168C1.95825 6.1585 4.40825 3.7085 8.66658 3.7085H20.3333C24.5916 3.7085 27.0416 6.1585 27.0416 10.4168V18.5835C27.0416 22.8418 24.5916 25.2918 20.3333 25.2918ZM8.66658 5.4585C5.32992 5.4585 3.70825 7.08016 3.70825 10.4168V18.5835C3.70825 21.9202 5.32992 23.5418 8.66658 23.5418H20.3333C23.6699 23.5418 25.2916 21.9202 25.2916 18.5835V10.4168C25.2916 7.08016 23.6699 5.4585 20.3333 5.4585H8.66658Z" fill="white"/>
<path d="M14.4998 15.515C13.5198 15.515 12.5282 15.2116 11.7698 14.5933L8.11815 11.6766C7.74482 11.3733 7.67483 10.825 7.97816 10.4516C8.28149 10.0783 8.82983 10.0083 9.20316 10.3116L12.8548 13.2283C13.7415 13.94 15.2465 13.94 16.1331 13.2283L19.7848 10.3116C20.1582 10.0083 20.7182 10.0666 21.0098 10.4516C21.3132 10.825 21.2548 11.385 20.8698 11.6766L17.2182 14.5933C16.4715 15.2116 15.4798 15.515 14.4998 15.515Z" fill="white"/>
</svg>
