<svg width="105" height="104" viewBox="0 0 105 104" fill="none" xmlns="http://www.w3.org/2000/svg">
<path d="M52.5 0C23.8255 0 0.5 23.3255 0.5 52C0.5 80.6745 23.8255 104 52.5 104C81.1745 104 104.5 80.6745 104.5 52C104.5 23.3255 81.1745 0 52.5 0ZM52.5 8.66667C76.4857 8.66667 95.8333 28.0143 95.8333 52C95.8333 75.9857 76.4857 95.3333 52.5 95.3333C28.5143 95.3333 9.16667 75.9857 9.16667 52C9.16667 28.0143 28.5143 8.66667 52.5 8.66667ZM70.6458 26.2708C70.0026 26.3724 69.4609 26.7109 69.0208 27.3542L47.7604 58.9063L37.7396 49.0208C36.8763 47.7174 35.2174 47.6159 34.3542 48.4792L30.4271 52.4063C29.5638 53.7096 29.5638 55.4701 30.4271 56.3333L45.5938 71.5C46.457 71.9401 47.6758 72.8542 48.9792 72.8542C49.8424 72.8542 51.2305 72.3971 52.0938 71.0938L78.0938 32.9062C78.957 31.6029 78.4661 30.3841 76.7396 29.5208L72.4062 26.4063C71.9661 26.1862 71.2891 26.1693 70.6458 26.2708Z" fill="#987A54"/>
</svg>
