<svg width="48" height="47" viewBox="0 0 48 47" fill="none" xmlns="http://www.w3.org/2000/svg">
<path d="M41.6253 39.6562H22.042C21.2391 39.6562 20.5732 38.9904 20.5732 38.1875C20.5732 37.3846 21.2391 36.7188 22.042 36.7188H41.6253C42.4282 36.7188 43.0941 37.3846 43.0941 38.1875C43.0941 38.9904 42.4282 39.6562 41.6253 39.6562Z" fill="#DDD9D4"/>
<path d="M41.6253 25.948H22.042C21.2391 25.948 20.5732 25.2822 20.5732 24.4792C20.5732 23.6763 21.2391 23.0105 22.042 23.0105H41.6253C42.4282 23.0105 43.0941 23.6763 43.0941 24.4792C43.0941 25.2822 42.4282 25.948 41.6253 25.948Z" fill="#DDD9D4"/>
<path d="M41.6253 12.2395H22.042C21.2391 12.2395 20.5732 11.5737 20.5732 10.7708C20.5732 9.96784 21.2391 9.302 22.042 9.302H41.6253C42.4282 9.302 43.0941 9.96784 43.0941 10.7708C43.0941 11.5737 42.4282 12.2395 41.6253 12.2395Z" fill="#DDD9D4"/>
<path d="M8.33332 14.198C7.96124 14.198 7.58915 14.0609 7.2954 13.7672L5.33707 11.8088C4.76915 11.2409 4.76915 10.3009 5.33707 9.73298C5.90499 9.16507 6.84499 9.16507 7.4129 9.73298L8.33332 10.6534L13.1704 5.81632C13.7383 5.2484 14.6783 5.2484 15.2462 5.81632C15.8142 6.38423 15.8142 7.32424 15.2462 7.89215L9.37124 13.7672C9.07749 14.0609 8.7054 14.198 8.33332 14.198Z" fill="#DDD9D4"/>
<path d="M8.33332 27.9062C7.96124 27.9062 7.58915 27.7692 7.2954 27.4754L5.33707 25.5171C4.76915 24.9492 4.76915 24.0092 5.33707 23.4412C5.90499 22.8733 6.84499 22.8733 7.4129 23.4412L8.33332 24.3617L13.1704 19.5246C13.7383 18.9567 14.6783 18.9567 15.2462 19.5246C15.8142 20.0925 15.8142 21.0325 15.2462 21.6004L9.37124 27.4754C9.07749 27.7692 8.7054 27.9062 8.33332 27.9062Z" fill="#DDD9D4"/>
<path d="M8.33332 41.6145C7.96124 41.6145 7.58915 41.4774 7.2954 41.1837L5.33707 39.2253C4.76915 38.6574 4.76915 37.7174 5.33707 37.1495C5.90499 36.5816 6.84499 36.5816 7.4129 37.1495L8.33332 38.0699L13.1704 33.2328C13.7383 32.6649 14.6783 32.6649 15.2462 33.2328C15.8142 33.8007 15.8142 34.7407 15.2462 35.3087L9.37124 41.1837C9.07749 41.4774 8.7054 41.6145 8.33332 41.6145Z" fill="#DDD9D4"/>
</svg>
