<svg width="23" height="27" viewBox="0 0 23 27" fill="none" xmlns="http://www.w3.org/2000/svg">
<path d="M15.1247 26.4894H7.87467C2.54592 26.4894 0.926758 24.8703 0.926758 19.5415V7.45817C0.926758 2.12942 2.54592 0.510254 7.87467 0.510254H15.1247C20.4534 0.510254 22.0726 2.12942 22.0726 7.45817V19.5415C22.0726 24.8703 20.4534 26.4894 15.1247 26.4894ZM7.87467 2.32275C3.54884 2.32275 2.73926 3.14442 2.73926 7.45817V19.5415C2.73926 23.8553 3.54884 24.6769 7.87467 24.6769H15.1247C19.4505 24.6769 20.2601 23.8553 20.2601 19.5415V7.45817C20.2601 3.14442 19.4505 2.32275 15.1247 2.32275H7.87467Z" fill="#DDD9D4"/>
</svg>
